<?xml version="1.0" encoding="utf-8"?>
<!-- Generator: Adobe Illustrator 27.5.0, SVG Export Plug-In . SVG Version: 6.00 Build 0)  -->
<svg version="1.1" id="Ñëîé_1" xmlns="http://www.w3.org/2000/svg" xmlns:xlink="http://www.w3.org/1999/xlink" x="0px" y="0px"
	 viewBox="0 0 2800 2000" style="enable-background:new 0 0 2800 2000;" xml:space="preserve">
<g>
	<g id="_x37_">
		<rect style="fill:#F8FCFF;" width="2800" height="2000"/>
		<polygon style="fill:#D4E8FF;" points="2800,486.68 2800,1432.62 100,1432.62 100,434.83 134.39,434.83 134.39,617.69 
			328.73,617.69 328.73,321.41 550.11,321.41 550.11,486.68 742.64,486.68 742.64,276.38 830.45,276.38 830.45,223.63 
			851.95,223.63 851.95,183.76 864.61,183.76 864.61,110 876.16,110 876.16,183.76 888.8,183.76 888.8,223.63 910.31,223.63 
			910.31,276.38 998.12,276.38 998.12,486.68 1239.18,486.68 1239.18,606.06 1507.66,606.06 1507.66,434.83 1575.72,434.83 
			1575.72,388.14 1597.23,388.14 1597.23,348.28 1609.88,348.28 1609.88,274.51 1621.44,274.51 1621.44,348.28 1634.08,348.28 
			1634.08,388.14 1655.58,388.14 1655.58,434.83 1723.65,434.83 1723.65,617.69 1918,617.69 1918,321.41 2139.37,321.41 
			2139.37,486.68 2331.9,486.68 2331.9,276.38 2419.72,276.38 2419.72,223.63 2441.22,223.63 2441.22,183.76 2453.86,183.76 
			2453.86,110 2465.42,110 2465.42,183.76 2478.07,183.76 2478.07,223.63 2499.57,223.63 2499.57,276.38 2587.39,276.38 
			2587.39,486.68 		"/>
		<path style="fill:#C5E2FF;" d="M2800,1186.217c-0.175,66.985-0.556,178.819-0.8,245.893h-827.25
			c10.239-241.037,57.934-475.076,298.067-515.021c73.271-14.181,151.609-3.895,221.731-24.578
			c42.39-10.736,63.785-51.387,69.064-97.374c21.799-129.403,154.738-213.167,238.489-212.97v603.121
			C2799.54,1185.597,2799.77,1185.907,2800,1186.217z"/>
		<path style="fill:#C0DAFF;" d="M2799.885,1155.1c0,0-16.695-277.005-120.387-277.005c-156.095,0-183.119,419.874-327.316,336.774
			c-142.855-82.327-273.221-110.298-303.706,217.236H2799.3L2799.885,1155.1z"/>
		<path style="fill:#B3CBF4;" d="M1297.197,1436.527c19.457-339.791,342.392-67.73,432.889-289.281
			c38.793-84.44,98.008-141.37,198.062-122.093c100.054,19.276,89.844,92.785,222.568,90.743
			c132.724-2.042,120.07-103.8,244.22-79.273c124.15,24.527,166.784,170.511,145.054,394.424L1297.197,1436.527z"/>
		<path style="fill:#A3BCEF;" d="M2799.885,1155.1l-0.585,277.009c-213.631-0.875-443.813-1.813-657.773-2.689v-41.637
			c26.042-33.969,85.516-82.043,188.682-67.921c51.932-2.347,112.883-18.442,161.538-41.195
			c43.097-18.51,71.283-44.653,97.677-81.067C2647.839,1121.181,2735.729,1059.492,2799.885,1155.1z"/>
		<path style="fill:#C5E2FF;" d="M1740.97,1299.441c-3.378,45.455-10.531,90.136-21.793,132.668H0.116V242.083
			c7.93-4.156,142.101-67.184,237.435,94.92c107.738,180.293,285.77-245.016,490.623-15.582
			c80.558,86.26,50.347,198.065,115.577,267.553c37.472,43.147,97.56,50.317,142.806,25.128
			c70.99-32.945,140.28-105.941,223.809-64.526c59.328,29.763,92.838,72.152,112.175,129.609
			c39.539,97.089-9.316,234.351,71.22,299.789c56.464,37.129,136.443,20.164,201.094,32.149
			C1731.937,1024.239,1749.9,1190.313,1740.97,1299.441z"/>
		<path style="fill:#C0DAFF;" d="M1499.502,1301.849c1.578,35.556-11.453,111.511-20.124,135.368H4.251V527.752
			c10.01-10.545,141.023-37.18,203.746,72.546c98.375,144.216,250.826-212.109,439.402,8.865
			C701.745,684.96,675.86,800.35,784.79,822.347c84.851,13.178,157.208-93.977,246.779-63.887
			c134.256,46.419,120.712,183.108,129.595,265.666C1200.403,1217.743,1498.348,976.649,1499.502,1301.849z"/>
		<path style="fill:#A3BCEF;" d="M1592.356,1436.528c-529.133-1.316-1063.085-2.642-1592.24-3.969
			c0.345-2.544-0.664-325.602,0.349-327.901c27.127-156.513,122.537-206.381,256.088-62.662
			c55.512,48.315,111.536,122.976,190.391,106.176c230.82-119.934,199.213,169.67,374.024,143.218
			c78.312-21.591,131.478-127.391,222.04-107.154c44.945,11.764,93.655,64.165,135.779,80.083
			c49.294,23.72,91.083,33.851,138.615,38.322C1449.381,1320.169,1599.124,1225.804,1592.356,1436.528z"/>
		<rect id="_x39__1_" y="1410.149" style="fill:#C5E2FF;" width="2800" height="589.851"/>
	</g>
	<path id="_x36_" style="fill:#8A9EDD;" d="M2734.455,577.247c-2.28-17.907-18.64-30.579-36.552-28.294l-766.729,97.641
		l-116.134-233.252l-25.259,37.084c-2.061,3.025-50.701,75.251-70.994,175.784c-12.075,59.824-11.586,117.31,1.453,170.861
		c16.357,67.179,52.43,127.804,107.215,180.192l31.938,30.54l80.609-296.436l301.937-38.451v25.938
		c-27.159,2.479-48.435,25.305-48.435,53.11v18.72h-34.113v89.159h50.43l-114.543,563.396c-1.943,9.562,4.231,18.889,13.794,20.833
		c9.556,1.938,18.888-4.232,20.833-13.794l32.496-159.835l234.902,147.382l2.532,12.453c1.703,8.375,9.068,14.151,17.295,14.151
		c1.167,0,2.351-0.116,3.538-0.357c9.563-1.944,15.737-11.271,13.794-20.833l-114.543-563.396h50.429v-89.159h-34.113v-18.72
		c0-27.805-21.277-50.63-48.435-53.11v-31.778l304.258-38.746v535.544h-39.319v279.672h51.499c1.728,0.565,3.57,0.879,5.487,0.879
		s3.758-0.315,5.487-0.879h51.499v-279.672h-39.319V623.83l78.77-10.031C2724.068,611.519,2736.735,595.154,2734.455,577.247z
		 M1810.116,521.407l52.105,104.652l-77.499-42.952C1792.792,559.029,1801.947,538.043,1810.116,521.407z M1769.997,638.245
		c0.19-0.96,0.387-1.913,0.583-2.868l64.017,35.481l-70.884,12.264C1764.895,668.444,1766.984,653.485,1769.997,638.245z
		 M1763.538,736.507l74.962-12.97l-65.425,68.464C1768.203,774.056,1765.022,755.553,1763.538,736.507z M1832.659,905.764
		c-15.499-18.909-28.436-38.723-38.804-59.412l76.819-80.387L1832.659,905.764z M2191.726,1126.201h119.736l-138.368,91.647
		L2191.726,1126.201z M2214.475,1014.308l103.974,85.391h-121.335L2214.475,1014.308z M2340.558,1138.716l19.525,96.034h-164.515
		L2340.558,1138.716z M2237.639,999.038h74.522l14.937,73.47L2237.639,999.038z M2228.911,972.537l62.588-75.126l15.274,75.126
		H2228.911z M2283.861,859.843l0.871,4.286l-52.549,63.076l13.695-67.363H2283.861z M2197.616,1261.252h167.854l24.542,120.712
		L2197.616,1261.252z"/>
	<path id="_x35_" style="fill:#8A9EDD;" d="M1194.474,790.059L455.219,438.15l28.345-259.018l-41.294,17.551
		c-3.369,1.432-83.328,35.914-154.733,109.535c-42.491,43.809-73.147,92.441-91.117,144.545
		c-22.543,65.363-24.956,135.867-7.173,209.553l10.367,42.956L427.641,497.42l315.095,149.995v51.439
		c-27.159,2.479-48.435,25.305-48.435,53.11v18.72h-34.113v89.159h50.429l-114.543,563.396c-1.944,9.562,4.232,18.889,13.794,20.833
		c9.56,1.94,18.889-4.231,20.833-13.794l32.496-159.835l234.903,147.382l2.532,12.453c1.703,8.375,9.068,14.151,17.295,14.151
		c1.167,0,2.351-0.116,3.539-0.357c9.562-1.944,15.737-11.271,13.793-20.833L820.715,859.843h50.43v-89.159h-34.113v-18.72
		c0-27.805-21.276-50.63-48.435-53.11v-29.608l304.257,144.836v349.791h-39.318v279.672h51.499c1.729,0.565,3.57,0.879,5.487,0.879
		s3.758-0.315,5.487-0.879h51.499v-279.672h-39.318v-332.97l38.189,18.179c4.535,2.159,9.316,3.181,14.026,3.181
		c12.215,0,23.934-6.88,29.534-18.644C1217.696,817.32,1210.772,797.818,1194.474,790.059z M265.58,423.204l70.081,29.6
		l-92.048,22.246C249.212,457.318,256.535,440.031,265.58,423.204z M232.264,602.97c-2.822-24.286-2.998-47.949-0.541-70.959
		l108.079-26.12L232.264,602.97z M294.578,378.381c8.927-11.711,18.769-23.169,29.54-34.363c0.678-0.705,1.36-1.4,2.041-2.098
		l34.688,64.45L294.578,378.381z M408.3,383.607l-41.993-78.023c19.802-15.898,38.847-28.607,54.71-38.19L408.3,383.607z
		 M746.675,859.843h37.982l0.872,4.287l-52.549,63.076L746.675,859.843z M715.271,1014.307l103.975,85.392H697.91L715.271,1014.307z
		 M692.521,1126.201h119.735l-138.368,91.648L692.521,1126.201z M890.808,1381.964l-192.396-120.712h167.854L890.808,1381.964z
		 M860.878,1234.75H696.362l144.992-96.035L860.878,1234.75z M827.893,1072.508l-89.46-73.47h74.522L827.893,1072.508z
		 M792.294,897.411l15.274,75.126h-77.861L792.294,897.411z"/>
	<g id="_x34_">
		<rect x="1379.212" y="1296.077" style="fill:#F9B233;" width="41.576" height="54.285"/>
		<path style="fill:#F39200;" d="M1473.681,1374.106L1473.681,1374.106l-147.362,0v0c0-22.962,18.614-41.576,41.576-41.576h64.209
			C1455.067,1332.53,1473.681,1351.144,1473.681,1374.106z"/>
		<path style="fill:#FFC05A;" d="M2800,827.64v263.49h-786.88v384.89c0,33.94-11.27,65.24-30.28,90.37
			c-27.38,36.23-70.82,59.63-119.72,59.63H938.89c-48.9,0-92.34-23.4-119.72-59.63c-19.01-25.13-30.28-56.43-30.28-90.37v-384.89H0
			V827.64h902.38c82.85,0,150,67.16,150,150v384.89h697.25V977.64c0-82.84,67.16-150,150-150H2800z"/>
		<polygon style="fill:#F9B233;" points="2800,1031.5 2013.085,1031.5 2013.085,1091.13 2450.969,1091.13 2450.969,1626.02 
			2489.394,1626.02 2489.394,1091.13 2799.281,1091.13 		"/>
		
			<rect x="268.125" y="1291.915" transform="matrix(6.123234e-17 -1 1 6.123234e-17 -1047.4119 1622.0876)" style="fill:#F9B233;" width="38.425" height="85.67"/>
		<polygon style="fill:#F9B233;" points="789.45,1031.5 0,1031.5 0,1091.13 310.404,1091.13 310.404,1626.02 348.83,1626.02 
			348.83,1091.13 788.729,1091.13 		"/>
		<path style="fill:#F39200;" d="M239.912,1377.585L239.912,1377.585c10.611,0,19.213-8.602,19.213-19.213v-47.244
			c0-10.611-8.602-19.213-19.213-19.213h0c-10.611,0-19.213,8.602-19.213,19.213v47.244
			C220.7,1368.983,229.301,1377.585,239.912,1377.585z"/>
		<path style="fill:#F9B233;" d="M1982.84,1566.39c-27.38,36.23-70.82,59.63-119.72,59.63H938.89c-48.9,0-92.34-23.4-119.72-59.63
			H1982.84z"/>
		<path style="fill:#F39200;" d="M280,1106.128c-8.284,0-15-6.716-15-15v-263.49c0-8.284,6.716-15,15-15c8.284,0,15,6.716,15,15
			v263.49C295,1099.412,288.284,1106.128,280,1106.128z"/>
		<path style="fill:#F39200;" d="M380,1106.128c-8.284,0-15-6.716-15-15v-263.49c0-8.284,6.716-15,15-15c8.284,0,15,6.716,15,15
			v263.49C395,1099.412,388.284,1106.128,380,1106.128z"/>
		<path style="fill:#F39200;" d="M1052.936,1191.344H789.447c-8.284,0-15-6.716-15-15s6.716-15,15-15h263.489
			c8.284,0,15,6.716,15,15S1061.22,1191.344,1052.936,1191.344z"/>
		<path style="fill:#F39200;" d="M1052.936,1291.344H789.447c-8.284,0-15-6.716-15-15s6.716-15,15-15h263.489
			c8.284,0,15,6.716,15,15S1061.22,1291.344,1052.936,1291.344z"/>
		<path style="fill:#F39200;" d="M2011.105,1191.344h-263.489c-8.284,0-15-6.716-15-15s6.716-15,15-15h263.489
			c8.284,0,15,6.716,15,15S2019.39,1191.344,2011.105,1191.344z"/>
		<path style="fill:#F39200;" d="M2011.105,1291.344h-263.489c-8.284,0-15-6.716-15-15s6.716-15,15-15h263.489
			c8.284,0,15,6.716,15,15S2019.39,1291.344,2011.105,1291.344z"/>
		<path style="fill:#F39200;" d="M2420,1106.128c-8.284,0-15-6.716-15-15v-263.49c0-8.284,6.716-15,15-15s15,6.716,15,15v263.49
			C2435,1099.412,2428.284,1106.128,2420,1106.128z"/>
		<path style="fill:#F39200;" d="M2520,1106.128c-8.284,0-15-6.716-15-15v-263.49c0-8.284,6.716-15,15-15s15,6.716,15,15v263.49
			C2535,1099.412,2528.284,1106.128,2520,1106.128z"/>
		<path style="fill:#F39200;" d="M1600,1641.021c-8.284,0-15-6.716-15-15v-263.489c0-8.284,6.716-15,15-15s15,6.716,15,15v263.489
			C1615,1634.306,1608.284,1641.021,1600,1641.021z"/>
		<path style="fill:#F39200;" d="M1200.367,1641.021c-8.284,0-15-6.716-15-15v-263.489c0-8.284,6.716-15,15-15s15,6.716,15,15
			v263.489C1215.367,1634.306,1208.651,1641.021,1200.367,1641.021z"/>
		<path style="fill:#EB5648;" d="M1956.789,1021.988c25.013-29.461,25.012-73.011,0-102.471c3.483-4.259,15.454-11.634,8.8-17.993
			c-6.337-6.656-13.756,5.321-17.988,8.797c-28.224-24.929-74.256-24.929-102.479,0.001c-4.259-3.483-11.631-15.449-17.989-8.797
			c-6.657,6.339,5.32,13.756,8.797,17.989c-24.93,28.223-24.929,74.255,0,102.478c-3.483,4.261-15.448,11.63-8.796,17.989
			c6.339,6.658,13.759-5.326,17.992-8.801c29.458,25.038,73.012,25.034,102.472,0c4.26,3.485,11.634,15.452,17.992,8.8
			C1972.246,1033.641,1960.265,1026.221,1956.789,1021.988z M1942.593,1007.792l-30.295-30.295c1.819-4.303,1.819-9.187,0-13.49
			l30.295-30.295C1959.896,955.278,1959.896,986.226,1942.593,1007.792z M1896.36,911.506c13.637,0,26.564,4.586,37.041,13.013
			l-30.296,30.296c-4.303-1.819-9.186-1.819-13.49,0l-30.296-30.296C1869.796,916.093,1882.723,911.506,1896.36,911.506z
			 M1837.114,970.752c0-13.637,4.587-26.564,13.013-37.041l30.296,30.296c-1.819,4.303-1.82,9.186,0,13.49l-30.296,30.296
			C1841.701,997.316,1837.114,984.389,1837.114,970.752z M1859.32,1016.984l30.295-30.295c4.304,1.82,9.187,1.82,13.491,0
			l30.295,30.295C1911.834,1034.288,1880.885,1034.288,1859.32,1016.984z"/>
		<path style="fill:#EB5648;" d="M1936.788,1538.449c25.014-29.461,25.014-73.011,0-102.472c3.482-4.259,15.454-11.634,8.8-17.992
			c-6.339-6.658-13.758,5.325-17.992,8.8c-29.461-25.012-73.011-25.012-102.472,0c-4.259-3.482-11.635-15.455-17.992-8.801
			c-6.657,6.339,5.321,13.755,8.797,17.988c-24.93,28.224-24.929,74.256,0,102.479c-3.483,4.261-15.45,11.63-8.797,17.989
			c6.339,6.657,13.756-5.322,17.989-8.797c28.224,24.931,74.255,24.929,102.479,0c4.259,3.485,11.631,15.447,17.988,8.797
			C1952.246,1550.101,1940.263,1542.682,1936.788,1538.449z M1922.592,1524.253l-30.295-30.295c1.82-4.304,1.82-9.187,0-13.491
			l30.295-30.295C1939.897,1471.738,1939.897,1502.688,1922.592,1524.253z M1876.36,1427.994c13.131,0,26.258,4.335,37.041,12.987
			l-30.295,30.295c-4.304-1.82-9.187-1.82-13.491,0l-30.295-30.295C1850.103,1432.329,1863.229,1427.994,1876.36,1427.994z
			 M1817.114,1487.212c0-13.637,4.587-26.564,13.013-37.041l30.296,30.296c-1.819,4.304-1.819,9.187,0,13.49l-30.296,30.296
			C1821.701,1513.778,1817.114,1500.85,1817.114,1487.212z M1876.36,1546.459c-13.637,0-26.565-4.587-37.041-13.014l30.296-30.296
			c4.303,1.82,9.187,1.82,13.49,0l30.296,30.296C1902.925,1541.872,1889.998,1546.459,1876.36,1546.459z"/>
		<path style="fill:#EB5648;" d="M967.717,1021.988c25.013-29.461,25.013-73.011,0-102.471c3.483-4.259,15.453-11.634,8.801-17.993
			c-6.341-6.656-13.76,5.324-17.993,8.801c-29.461-25.013-73.01-25.012-102.471,0c-4.259-3.483-11.634-15.453-17.993-8.801
			c-6.657,6.341,5.324,13.759,8.801,17.993c-25.013,29.46-25.013,73.01,0,102.471c-3.483,4.262-15.453,11.632-8.801,17.992
			c6.34,6.658,13.759-5.324,17.993-8.8c29.459,25.036,73.012,25.035,102.471,0c4.26,3.485,11.634,15.452,17.993,8.8
			C983.174,1033.64,971.192,1026.221,967.717,1021.988z M953.521,1007.792l-30.295-30.295c1.819-4.303,1.819-9.186,0-13.49
			l30.295-30.295C970.824,955.278,970.824,986.226,953.521,1007.792z M907.289,911.534c13.13,0,26.257,4.334,37.039,12.986
			l-30.295,30.295c-4.303-1.819-9.186-1.819-13.489,0l-30.295-30.295C881.032,915.869,894.158,911.534,907.289,911.534z
			 M861.057,933.713l30.295,30.295c-1.819,4.303-1.819,9.186,0,13.49l-30.295,30.295
			C843.753,986.226,843.753,955.278,861.057,933.713z M870.249,1016.984l30.295-30.295c4.304,1.819,9.187,1.819,13.49,0
			l30.295,30.295C922.763,1034.288,891.815,1034.288,870.249,1016.984z"/>
		
			<ellipse transform="matrix(0.7071 -0.7071 0.7071 0.7071 -661.14 1224.1648)" style="fill:#F39200;" cx="1147.128" cy="1410.149" rx="17.617" ry="17.617"/>
		
			<ellipse transform="matrix(0.2298 -0.9732 0.9732 0.2298 -570.7313 2267.4016)" style="fill:#F39200;" cx="1147.128" cy="1494.276" rx="17.617" ry="17.617"/>
		<circle style="fill:#F39200;" cx="1147.128" cy="1578.403" r="17.617"/>
		
			<ellipse transform="matrix(0.2298 -0.9732 0.9732 0.2298 218.965 2934.5889)" style="fill:#F39200;" cx="1963.488" cy="1328.957" rx="17.617" ry="17.617"/>
		
			<ellipse transform="matrix(0.7071 -0.7071 0.7071 0.7071 -389.2628 1718.1512)" style="fill:#F39200;" cx="1879.36" cy="1328.957" rx="17.617" ry="17.617"/>
		
			<ellipse transform="matrix(0.2298 -0.9732 0.9732 0.2298 -99.7969 2694.1992)" style="fill:#F39200;" cx="1652.234" cy="1410.149" rx="17.617" ry="17.617"/>
		
			<ellipse transform="matrix(0.7071 -0.7071 0.7071 0.7071 -572.6845 1605.9692)" style="fill:#F39200;" cx="1652.234" cy="1494.276" rx="17.617" ry="17.617"/>
		<circle style="fill:#F39200;" cx="1652.234" cy="1578.403" r="17.617"/>
		
			<ellipse transform="matrix(0.9246 -0.3809 0.3809 0.9246 -430.4072 483.094)" style="fill:#F39200;" cx="1005.318" cy="1328.957" rx="17.617" ry="17.617"/>
		<circle style="fill:#F39200;" cx="921.191" cy="1328.957" r="17.617"/>
		
			<ellipse transform="matrix(0.2315 -0.9728 0.9728 0.2315 -649.5706 1835.6339)" style="fill:#F39200;" cx="837.064" cy="1328.957" rx="17.617" ry="17.617"/>
		
			<ellipse transform="matrix(0.1602 -0.9871 0.9871 0.1602 -263.7528 1935.0596)" style="fill:#F39200;" cx="1005.318" cy="1122.532" rx="17.617" ry="17.617"/>
		<circle style="fill:#F39200;" cx="921.191" cy="1122.532" r="17.617"/>
		
			<ellipse transform="matrix(0.1611 -0.9869 0.9869 0.1611 -405.6334 1767.8666)" style="fill:#F39200;" cx="837.064" cy="1122.532" rx="17.617" ry="17.617"/>
		<circle style="fill:#F39200;" cx="1795.234" cy="1328.957" r="17.617"/>
		
			<ellipse transform="matrix(0.1602 -0.9871 0.9871 0.1602 540.9349 2880.8564)" style="fill:#F39200;" cx="1963.488" cy="1122.532" rx="17.617" ry="17.617"/>
		
			<ellipse transform="matrix(0.9239 -0.3827 0.3827 0.9239 -286.5167 804.6486)" style="fill:#F39200;" cx="1879.36" cy="1122.532" rx="17.617" ry="17.617"/>
		<circle style="fill:#F39200;" cx="1795.234" cy="1122.532" r="17.617"/>
		<circle style="fill:#F39200;" cx="2367.021" cy="875.256" r="17.617"/>
		<circle style="fill:#F39200;" cx="2367.021" cy="959.383" r="17.617"/>
		
			<ellipse transform="matrix(0.9239 -0.3827 0.3827 0.9239 -219.1553 985.2532)" style="fill:#F39200;" cx="2367.021" cy="1043.51" rx="17.617" ry="17.617"/>
		<circle style="fill:#F39200;" cx="2572.383" cy="875.256" r="17.617"/>
		<circle style="fill:#F39200;" cx="2572.383" cy="959.383" r="17.617"/>
		
			<ellipse transform="matrix(0.9239 -0.3827 0.3827 0.9239 -203.523 1063.8418)" style="fill:#F39200;" cx="2572.383" cy="1043.51" rx="17.617" ry="17.617"/>
		<circle style="fill:#F39200;" cx="227.362" cy="875.256" r="17.617"/>
		<circle style="fill:#F39200;" cx="227.362" cy="959.383" r="17.617"/>
		
			<ellipse transform="matrix(0.9256 -0.3786 0.3786 0.9256 -378.1527 163.7607)" style="fill:#F39200;" cx="227.362" cy="1043.51" rx="17.617" ry="17.617"/>
		<circle style="fill:#F39200;" cx="432.723" cy="875.256" r="17.617"/>
		<circle style="fill:#F39200;" cx="432.723" cy="959.383" r="17.617"/>
		
			<ellipse transform="matrix(0.9256 -0.3786 0.3786 0.9256 -362.8653 241.5116)" style="fill:#F39200;" cx="432.723" cy="1043.51" rx="17.617" ry="17.617"/>
		
			<rect x="2493.803" y="1290.803" transform="matrix(6.123234e-17 -1 1 6.123234e-17 1179.3779 3846.6545)" style="fill:#F9B233;" width="38.426" height="85.67"/>
		<path style="fill:#F39200;" d="M2560.442,1376.473L2560.442,1376.473c-10.611,0-19.213-8.602-19.213-19.213v-47.244
			c0-10.611,8.602-19.213,19.213-19.213h0c10.611,0,19.213,8.602,19.213,19.213v47.244
			C2579.655,1367.871,2571.053,1376.473,2560.442,1376.473z"/>
		<path style="fill:#F39200;" d="M2494.841,1582.788h-49.319c-14.285,0-25.865,11.58-25.865,25.865v17.366h101.05v-17.366
			C2520.706,1594.369,2509.126,1582.788,2494.841,1582.788z"/>
		<path style="fill:#F39200;" d="M354.276,1582.788h-49.319c-14.285,0-25.865,11.58-25.865,25.865v17.366h101.05v-17.366
			C380.142,1594.369,368.561,1582.788,354.276,1582.788z"/>
		<circle style="fill:#F39200;" cx="2470.181" cy="1333.638" r="54.181"/>
		<circle style="fill:#FFFFFF;" cx="2470.181" cy="1333.638" r="40.089"/>
		<path style="fill:#EB5648;" d="M2466.877,1330.334l20.485-15.083c0.384-0.282,0.924-0.2,1.206,0.183
			c0.229,0.312,0.218,0.727,0,1.023l-15.083,20.485c-1.548,2.102-4.506,2.552-6.609,1.004c-2.102-1.548-2.552-4.507-1.004-6.609
			C2466.158,1330.95,2466.51,1330.607,2466.877,1330.334z"/>
		<circle style="fill:#F39200;" cx="329.617" cy="1333.638" r="54.181"/>
		<circle style="fill:#FFFFFF;" cx="329.617" cy="1333.638" r="40.089"/>
		<path style="fill:#EB5648;" d="M326.313,1330.334l20.485-15.083c0.384-0.282,0.924-0.2,1.206,0.183
			c0.229,0.312,0.218,0.727,0,1.023l-15.083,20.485c-1.548,2.102-4.507,2.552-6.609,1.004c-2.102-1.548-2.552-4.507-1.004-6.609
			C325.594,1330.95,325.946,1330.607,326.313,1330.334z"/>
		
			<ellipse transform="matrix(0.7071 -0.7071 0.7071 0.7071 -454.38 1348.0083)" style="fill:#F39200;" cx="1400" cy="1222.489" rx="92.766" ry="92.766"/>
		
			<ellipse transform="matrix(0.1602 -0.9871 0.9871 0.1602 -30.9591 2408.5906)" style="fill:#FFFFFF;" cx="1400" cy="1222.489" rx="68.638" ry="68.638"/>
		<path style="fill:#EB5648;" d="M1394.342,1216.832l35.074-25.824c0.657-0.484,1.582-0.343,2.065,0.314
			c0.393,0.533,0.373,1.245,0,1.752l-25.824,35.074c-2.65,3.599-7.716,4.369-11.315,1.719c-3.599-2.65-4.369-7.716-1.719-11.315
			C1393.112,1217.887,1393.714,1217.299,1394.342,1216.832z"/>
	</g>
	<g id="_x33_">
		<path style="fill:#F99370;" d="M1926.514,1539.334c0,0-28.185,7.89-33.781,1.873l-9.557-17.233
			c2.44-4.379,36.97-8.013,41.267-5.594C1924.444,1518.381,1921.689,1523.359,1926.514,1539.334z"/>
		<path style="fill:#F99370;" d="M2122.124,1420.415c-4.145,48.198-16.003,64.12-47.277,95.085
			c-37.461,37.09-90.353,46.086-133.917,29.691c-9-3.652-26.058-7.215-20.552-20.455c3.433-7.609,11.948-6.284,18.671-5.497
			c22.961,1.356,48.924,2.412,68.084-11.374c20.585-16.19,56.3-104.911,73.513-124.552
			C2114.137,1345.098,2116.513,1385.597,2122.124,1420.415z"/>
		<path style="fill:#CE3932;" d="M1935.919,1543.676c28.446,28.237,101.773,24.766,140.942-22.705c0.23-0.27,0.45-0.55,0.67-0.82
			c9.832-12.063,17.184-24.526,22.625-36.928c27.226-62.044,6.441-122.428,6.781-122.568
			c-42.54,13.773-81.408,121.287-105.634,138.381c-12.123,10.892-55.022,6.992-62.254,20.205
			C1939.05,1519.241,1940.51,1534.054,1935.919,1543.676z"/>
		<path style="fill:#F99370;" d="M1963.569,1890.225h81.119c3.705,0,6.626-3.105,6.441-6.801c-0.09-1.787-0.301-3.896-0.718-6.291
			c-1.173-6.756-1.661-13.607-1.539-20.457c0.056-3.28,0.253-6.56,0.591-9.83l5.84-56.906c0.39-3.797-2.594-7.098-6.416-7.098
			h-35.801c-3.88,0-6.882,3.397-6.399,7.243l6.512,51.851c1.425,11.344-5.892,21.924-17,24.686
			c-7.915,1.968-15.954,3.147-21.703,4.626c-0.741,0.197-1.483,0.394-2.196,0.6h-0.009c-6.096,1.738-11.135,4.017-14.049,8.293
			C1955.324,1884.424,1958.383,1890.225,1963.569,1890.225z"/>
		<path style="fill:#103663;" d="M2053.499,1881.82c-0.219,3.973-2.191,8.504-6.798,8.406c0,0-84.143,0-84.143,0
			c-4.348,0.006-7.433-4.347-5.888-8.406c3.267-9.174,14.869-22.847,54.629-25.09c5.709,0.554,18.726,2.503,37.574-0.054
			C2048.872,1856.677,2055.337,1866.832,2053.499,1881.82z"/>
		<path style="fill:#E8C0A6;" d="M1982.617,1878.852c0.224,0,0.452-0.041,0.673-0.131c0.915-0.372,1.354-1.411,0.984-2.328
			c-3.839-9.452-11.006-12.365-11.309-12.483c-0.922-0.357-1.955,0.09-2.318,1.006c-0.362,0.914,0.085,1.948,1,2.312l0,0
			c0.247,0.1,6.077,2.541,9.312,10.509C1981.242,1878.431,1981.91,1878.852,1982.617,1878.852z"/>
		<path style="fill:#E8C0A6;" d="M1996.511,1877.176c0.175,0,0.352-0.026,0.529-0.08c0.943-0.293,1.47-1.293,1.179-2.235
			c-3.299-10.638-12.373-15.447-12.755-15.645c-0.881-0.459-1.953-0.115-2.408,0.757c-0.457,0.873-0.118,1.95,0.755,2.41
			c0.082,0.041,8.148,4.36,10.99,13.535C1995.041,1876.684,1995.748,1877.176,1996.511,1877.176z"/>
		<path style="fill:#E8C0A6;" d="M2012.321,1875.236c0.195,0,0.393-0.033,0.589-0.1c0.933-0.323,1.423-1.342,1.1-2.274
			c-3.747-10.758-12.172-16.42-12.529-16.656c-0.82-0.544-1.927-0.321-2.475,0.5c-0.545,0.821-0.321,1.93,0.499,2.477
			c0.077,0.051,7.791,5.269,11.129,14.854C2010.89,1874.774,2011.581,1875.236,2012.321,1875.236z"/>
		<path style="fill:#0F2E54;" d="M1956.67,1881.82h96.829c-0.356,2.952-1.173,5.819-2.655,8.406h-88.286
			c-4.289,0-7.361-4.221-5.939-8.261C1956.635,1881.917,1956.652,1881.869,1956.67,1881.82z"/>
		<path style="fill:#F99370;" d="M2443.817,1880.075l-36.821-72.281c-1.682-3.301-5.774-4.495-8.983-2.652
			c-1.551,0.891-3.334,2.036-5.279,3.495c-5.488,4.112-11.37,7.656-17.53,10.657c-2.948,1.439-10.143-1.058-13.21,0.126
			l-49.174-4.048c-3.56,1.376-5.147,5.533-3.412,8.938l11.274,22.132c1.761,3.457,7.802,7.638,11.009,5.462l46.06,1.189
			c10.667,0,22.721-0.023,30.224,8.621c5.347,6.16,10.046,12.787,13.974,17.238c0.512,0.571,1.024,1.142,1.531,1.684l0.004,0.008
			c4.316,4.643,8.634,8.099,13.766,8.754C2442.391,1890.055,2446.172,1884.696,2443.817,1880.075z"/>
		<path style="fill:#103663;" d="M2395.508,1803.758c3.639-1.609,8.572-1.908,10.575,2.242c0,0,38.194,74.975,38.194,74.975
			c1.979,3.872-0.5,8.596-4.817,9.062c-9.657,1.254-27.107-2.878-47.153-37.288c-2.097-5.339-6.27-17.822-17.103-33.455
			C2375.204,1819.294,2381.318,1808.924,2395.508,1803.758z"/>
		<path style="fill:#E8C0A6;" d="M2425.038,1868.265c-0.101-0.199-0.242-0.384-0.422-0.541c-0.747-0.646-1.872-0.566-2.521,0.18
			c-6.68,7.711-6.022,15.419-5.99,15.743c0.101,0.984,0.968,1.702,1.948,1.609c0.979-0.092,1.697-0.96,1.606-1.94l0,0
			c-0.023-0.265-0.494-6.568,5.138-13.068C2425.287,1869.681,2425.358,1868.894,2425.038,1868.265z"/>
		<path style="fill:#E8C0A6;" d="M2417.238,1856.645c-0.079-0.156-0.183-0.302-0.311-0.435c-0.689-0.708-1.82-0.723-2.527-0.036
			c-7.981,7.769-8.148,18.036-8.15,18.467c-0.009,0.994,0.783,1.792,1.767,1.802c0.985,0.011,1.792-0.78,1.804-1.767
			c-0.001-0.092,0.187-9.24,7.072-15.936C2417.466,1858.179,2417.584,1857.325,2417.238,1856.645z"/>
		<path style="fill:#E8C0A6;" d="M2408.333,1843.438c-0.089-0.174-0.208-0.335-0.356-0.479c-0.711-0.684-1.842-0.659-2.525,0.052
			c-7.885,8.222-9.106,18.299-9.154,18.724c-0.113,0.977,0.589,1.863,1.569,1.978c0.979,0.113,1.865-0.59,1.98-1.568
			c0.011-0.092,1.158-9.334,8.184-16.659C2408.57,1844.923,2408.668,1844.097,2408.333,1843.438z"/>
		<path style="fill:#0F2E54;" d="M2439.46,1890.037l-43.952-86.279c2.792-1.022,5.718-1.596,8.695-1.449l40.074,78.667
			c1.947,3.821-0.419,8.475-4.665,9.042C2439.562,1890.024,2439.511,1890.031,2439.46,1890.037z"/>
		<path style="fill:#F99370;" d="M2118.186,1357.698c-6.346-16.29-10.088-41.28-10.357-51.819
			c-0.939-20.783,32.295-21.378,32.185-0.677c-1.173-0.368,4.97,36.126,9.796,45.436c18.295,0.625-5.147,46.046-21.275,51.918
			C2116.789,1406.833,2110.886,1377.109,2118.186,1357.698z"/>
		<path style="fill:#E57D61;" d="M2139.887,1303.501c0.023,0.236,0.058,0.479,0.072,0.717c0.029,0.332,0.047,0.656,0.055,0.983
			c-0.852-0.289,2.283,19.912,6.016,34.192c-11.828,9.629-27.506,10.881-30.394,11.039c-4.564-14.933-7.13-34.257-7.743-41.576
			c-0.068-1.736-0.057-2.766-0.064-2.977c-0.008-0.473,0.005-0.941,0.038-1.405c0.321-4.871,2.822-9.161,6.547-11.894
			c0.009-0.002,0.009-0.002,0.009-0.002c2.588-1.891,5.754-3.023,9.198-3.095c3.408-0.062,6.59,0.933,9.225,2.692
			c0.115,0.067,0.223,0.145,0.328,0.214C2136.77,1294.922,2139.308,1298.896,2139.887,1303.501z"/>
		<path style="fill:#163260;" d="M2073.927,1294.881c0,0-7.064-15.884-7.2-29.038l11.068,0.223L2073.927,1294.881z"/>
		<path style="fill:#F99370;" d="M2095.129,1341.108c20.427,7.163,43.44-1.035,55.115-17.529l0.006-0.002
			c0.84-1.285,1.585-2.608,2.241-3.99l0.017-0.006c26.731-74.047-80.165-125.132-77.67-38.291
			C2073.782,1306.562,2060.52,1326.016,2095.129,1341.108z"/>
		<path style="fill:#F9F8F3;" d="M2094.882,1315.686l11.56-6.753c0,0,1.079,6.446-3.531,8.474
			C2098.504,1319.345,2094.882,1315.686,2094.882,1315.686z"/>
		<path style="fill:#C16256;" d="M2097.687,1289.97c-0.967-0.756-1.137-2.154-0.379-3.12c0.758-0.967,2.156-1.137,3.124-0.381
			c0.967,0.757,1.137,2.154,0.379,3.12C2100.053,1290.556,2098.655,1290.727,2097.687,1289.97z"/>
		<path style="fill:#C16256;" d="M2079.403,1295.03c-0.967-0.756-1.137-2.153-0.379-3.12c0.758-0.967,2.156-1.137,3.124-0.381
			c0.967,0.756,1.137,2.153,0.379,3.12C2081.769,1295.616,2080.37,1295.786,2079.403,1295.03z"/>
		<path style="fill:#C16256;" d="M2092.789,1310.032c1.247-0.41,2.423-1.037,3.29-1.839c0.343-0.315,0.362-0.848,0.048-1.188
			c-0.316-0.345-0.853-0.354-1.189-0.047c-2.176,2.01-6.396,2.42-7.434,1.494c-0.364-0.326-0.005-0.985,0.363-1.478
			c3.236-4.358,2.323-13.891,2.283-14.294c-0.047-0.463-0.458-0.8-0.921-0.753c-0.479,0.047-0.801,0.461-0.755,0.921
			c0.009,0.092,0.888,9.288-1.959,13.123c-1.552,2.091-0.611,3.308-0.135,3.735
			C2087.621,1310.818,2090.343,1310.836,2092.789,1310.032z"/>
		<path style="fill:#E57D61;" d="M2074.847,1275.202c8.257-10.856,30.538-14.84,40.242-19.451c0,0,5.681,17.618,28.016,21.657
			c8.549,14.653,14.18,20.166,7.138,46.17l0.006-0.002c0.84-1.285,1.585-2.608,2.241-3.99l0.017-0.006
			C2178.472,1248.755,2077.031,1195.698,2074.847,1275.202z"/>
		<path style="fill:#163260;" d="M2066.727,1249.159c27.001-51.595,89.647-9.768,93.204,3.453c4.451,16.544,0.182,27.01,0.182,27.01
			l-15.726-7.266c-19.576-4.888-27.014-22.002-27.014-22.002l0.002-0.004c-3.099,1.632-6.501,3.05-9.81,3.67
			c-10.252,1.923-24.336,7.1-32.898,15.711C2066.105,1278.342,2055.056,1271.46,2066.727,1249.159z"/>
		<path style="fill:#F99370;" d="M2163.963,1277.244c1.629,7.018-1.634,13.772-7.287,15.085
			c-5.653,1.313-11.556-3.311-13.184-10.329s1.634-13.772,7.287-15.085C2156.432,1265.602,2162.335,1270.226,2163.963,1277.244z"/>
		<path style="fill:#C16256;" d="M2147.802,1274.465c0.163-0.17,4.035-4.188,7.832-2.968c0.967,0.309,1.811,0.945,2.546,1.86
			c0.002,0.002,0.003,0.005,0.005,0.006c0.069,0.085,0.143,0.156,0.209,0.247c0.001,0.002,0.003,0.002,0.003,0.004
			c0,0.001,0,0.002,0,0.001c1.278,1.746,2.181,4.455,2.698,8.113c0.056,0.408-0.191,0.792-0.572,0.917
			c-0.046,0.015-0.094,0.026-0.146,0.034c-0.46,0.065-0.888-0.256-0.952-0.716c-0.417-2.966-1.098-5.219-1.999-6.74
			c-4.034,2.835-3.948,8.789-3.944,8.852c0.012,0.382-0.233,0.714-0.58,0.828c-0.073,0.024-0.153,0.037-0.236,0.04
			c-0.465,0.018-0.852-0.346-0.87-0.811c-0.008-0.295-0.171-6.918,4.551-10.276c-0.383-0.347-0.788-0.616-1.226-0.757
			c-2.789-0.898-6.069,2.494-6.1,2.525c-0.327,0.337-0.855,0.346-1.192,0.027
			C2147.495,1275.334,2147.482,1274.803,2147.802,1274.465z"/>
		<path style="fill:#EB5648;" d="M2296.15,1588.95c-90.76,28.45-152.86,25.66-206.08-28.91c-14.41-32.71-3.88-52.11-7.07-87.03
			c-4.69-51.41,3.03-87.51,25.51-108c2.96-2.7,6.18-5.13,9.66-7.29c0.33,24.08,30.5,5.38,31.2-8.22c0,0,4.72-0.3,12.16,0.32
			c20.9,1.71,63.27,10.59,82.54,53.37c4.97,11.05,9.98,44.09,18.48,67.8C2273.1,1500.4,2296.15,1588.95,2296.15,1588.95z"/>
		<path style="fill:#CE3932;" d="M2161.53,1349.82c-1.17,2.41-13.2,26.35-31.51,27.56c-13.07,0.87-19.03-7.13-21.51-12.37
			c2.96-2.7,6.18-5.13,9.66-7.29c0.33,24.08,30.5,5.38,31.2-8.22C2149.37,1349.5,2154.09,1349.2,2161.53,1349.82z"/>
		<path style="fill:#1D3F70;" d="M2357.429,1799.294c0,0-6.511,0.37-16.374,0.64c-30.607,0.86-93.421,0.88-93.211-13.363
			c0.46-31.397,32.937-83.269,47.481-133.69c6.321-21.915,5.111-42.96,1.73-59.743c-0.287-1.427-0.592-2.824-0.908-4.189l0,0
			c-3.428-23.266-14.588-54.289-14.588-54.289s-16.972,4.072-58.164-9.886c-41.192-13.958-62.931-86.741-62.931-86.741
			c-1.218-14.956-3.375-51.941,1.149-88.412c0,0-6.814-1.879-12.248-0.118c0,0-10.713,39.514-8.395,91.827
			c-15.126,1.996-30.29,2.898-41.557,3.301c-0.5-12.745-0.049-49.964,18.755-86.906c0,0-6.604-0.846-11.233,2.931
			c0,0-29.475,38.193-25.949,96.979c-0.408,23.869-1.032,74.036,0.699,84.841c0.645,4.027,1.907,10.187,5.097,17.233
			c-55.26,3.336-105.124,25.147-109.318,86.386c-2.482,19.379,13.074,126.281,19.418,168.395
			c1.591,10.566,2.602,17.053,2.602,17.053s29.498,12.595,71.519,0.839c2.376-22.792,4.556-62.109,0.653-91.268
			c-2.975-30.646-3.98-53.565,22.479-59.147c7.538-1.365,28.724-1.445,48.969-1.121c-2.955,24.241-5.285,48-5.866,66.197
			c-2.15,67.295,11.663,139.532,90.21,142.412c54.532,2,105.254-11.182,131.17-19.424v-0.01c11.403-3.621,17.994-6.292,17.994-6.292
			C2378.394,1823.43,2357.429,1799.294,2357.429,1799.294z"/>
		<path style="fill:#C16256;" d="M2106.369,1280.161c-0.313,0.213-0.73,0.25-1.089,0.063c-6.224-3.259-12.088-0.875-12.146-0.851
			c-0.54,0.226-1.162-0.027-1.389-0.566c-0.227-0.54,0.025-1.162,0.563-1.388c0.275-0.117,6.817-2.813,13.957,0.925
			c0.519,0.272,0.72,0.913,0.448,1.433C2106.628,1279.936,2106.509,1280.066,2106.369,1280.161z"/>
		<path style="fill:#C16256;" d="M2085.879,1280.324c-0.155,0.105-0.34,0.171-0.542,0.182c-6.562,0.335-8.335,4.307-8.353,4.347
			c-0.229,0.538-0.853,0.789-1.393,0.558c-0.539-0.23-0.789-0.854-0.558-1.393c0.091-0.213,2.323-5.23,10.196-5.633
			c0.585-0.03,1.084,0.421,1.114,1.006C2086.363,1279.775,2086.176,1280.122,2085.879,1280.324z"/>
		<path style="fill:#F99370;" d="M2062.967,1561.657c0,0-25.349-10.102-44.629,1.601c-14.863,9.022-13.64,24.419-13.64,24.419
			s37.249,8.511,60.769-1.28L2062.967,1561.657z"/>
		<path style="fill:#103663;" d="M2288.573,1556.459c0,0-111.382,21.732-203.073,0.2v23.711c0,0,118.752,18.929,209.615,4.375
			C2295.115,1584.745,2295.678,1571.662,2288.573,1556.459z"/>
		<polygon style="fill:#F99370;" points="2081.685,1559.755 2060.622,1561.895 2060.622,1585.481 2082.682,1589.65 		"/>
		<path style="fill:#CE3932;" d="M2082.682,1589.65c43.243,30.74,150.889-14.352,171.07-70.766
			c27.574-77.08-11.415-174.366-92.137-169.264c0,0-7.887,42.728,1.471,109.13c12.984,92.13-70.135,79.713-82.812,103.145
			C2075.733,1570.289,2082.682,1589.65,2082.682,1589.65z"/>
		<path style="fill:#103663;" d="M2358.615,1870.022c11.405-3.62,18-6.294,18-6.294c1.778-40.301-19.183-64.429-19.183-64.429
			s-6.516,0.366-16.373,0.638C2341.059,1799.937,2364.443,1830.553,2358.615,1870.022z"/>
		<path style="fill:#103663;" d="M1996.885,1814.489c1.591,10.566,2.602,17.054,2.602,17.054s29.498,12.595,71.519,0.839
			c0,0,0.867-7.828,1.634-19.67l-0.043-0.029C2072.597,1812.682,2040.339,1827.277,1996.885,1814.489z"/>
		<path style="fill:#E57D61;" d="M2006.032,1583.841c0.132,0.03,0.273,0.022,0.409-0.029c9.709-3.653,25.927-3.566,26.089-3.565
			c0.396,0.004,0.719-0.315,0.723-0.711c0.003-0.396-0.317-0.72-0.711-0.723c-0.675-0.006-16.645-0.091-26.606,3.657
			c-0.37,0.139-0.557,0.553-0.418,0.923C2005.605,1583.629,2005.804,1583.79,2006.032,1583.841z"/>
		<path style="fill:#E57D61;" d="M2008.417,1576.999c0.154,0.034,0.321,0.019,0.473-0.057c7.792-3.846,20.942-4.761,21.073-4.771
			c0.395-0.026,0.694-0.368,0.668-0.763c-0.027-0.395-0.368-0.694-0.763-0.668c-0.55,0.037-13.563,0.943-21.612,4.915
			c-0.355,0.175-0.501,0.605-0.326,0.96C2008.029,1576.818,2008.212,1576.953,2008.417,1576.999z"/>
		<path style="fill:#E57D61;" d="M2013.604,1569.371c0.14,0.031,0.292,0.021,0.434-0.039c6.123-2.575,14.379-4.259,14.461-4.275
			c0.389-0.079,0.64-0.456,0.561-0.844c-0.079-0.388-0.456-0.642-0.844-0.561c-0.084,0.017-8.477,1.728-14.734,4.359
			c-0.365,0.154-0.536,0.574-0.383,0.939C2013.193,1569.172,2013.385,1569.322,2013.604,1569.371z"/>
		<path style="fill:#C16256;" d="M2094.883,1316.528c-0.29,0-0.571-0.15-0.729-0.418c-0.234-0.402-0.099-0.917,0.303-1.153
			l11.56-6.753c0.402-0.234,0.917-0.099,1.153,0.303c0.235,0.402,0.099,0.917-0.303,1.153l-11.56,6.753
			C2095.173,1316.491,2095.027,1316.528,2094.883,1316.528z"/>
		<path style="fill:#1D3F70;" d="M1941.344,1552.085c-5.293-7.708-14.958-10.641-23.413-7.798l-25.314-38.445
			c9.017-9.58,5.568-26.936-6.819-32.184c-6.453-3.041-11.095,7.143-4.558,10.012c1.554,0.707,2.891,1.832,3.867,3.254
			c7.1,10.037-8.808,20.963-15.626,10.733c-2.422-3.686-1.061-10.58-7.365-10.284c-3.035,0.115-5.403,2.669-5.287,5.704
			c0.151,13.169,14.367,22.981,26.566,18.76l25.442,38.639c-9.201,9.891-4.483,29.469,9.399,32.33
			c5.682,0.202,7.634-8.271,2.283-10.506c-1.554-0.709-2.892-1.834-3.868-3.255c-7.1-10.036,8.808-20.967,15.627-10.732
			c2.422,3.679,1.058,10.591,7.364,10.283C1948.056,1567.644,1944.631,1556.73,1941.344,1552.085z"/>
		<path style="fill:#F99370;" d="M1906.148,1546.306c-0.4,0.271-0.498,0.319-0.714,0.445c-0.187,0.106-0.366,0.2-0.544,0.289
			c-0.356,0.178-0.713,0.329-1.075,0.467c-0.725,0.271-1.489,0.469-2.276,0.571c-0.784,0.105-1.595,0.108-2.365-0.012
			c-0.78-0.104-1.493-0.348-2.151-0.642c-1.95-0.871-2.539-3.29-1.315-5.404c0.863-1.49,2.396-2.431,3.909-2.551l2.301-0.178
			c0.045-0.004-0.054-0.002-0.036-0.005c0,0,0.039-0.002,0.091-0.022l0.073-0.032c0.01-0.005,0.014-0.007,0.014-0.007l-0.172,0.114
			c2.168-1.515,4.879-1.183,6.055,0.741C1909.12,1542.002,1908.316,1544.791,1906.148,1546.306z"/>
		<path style="fill:#F99370;" d="M1900.795,1542.145c-0.372,0.141-0.483,0.172-0.698,0.241l-0.548,0.156
			c-0.36,0.095-0.715,0.172-1.077,0.236c-0.722,0.126-1.47,0.196-2.25,0.183c-0.776-0.009-1.603-0.129-2.41-0.369
			c-0.814-0.237-1.599-0.654-2.287-1.168c-1.776-1.385-1.805-4.124-0.064-6.118c1.741-1.994,4.593-2.488,6.369-1.103
			c-0.071-0.077-0.149-0.041,0.078-0.032c0.107,0,0.262-0.009,0.442-0.04c0.089-0.016,0.185-0.036,0.273-0.06l0.123-0.034
			c0.008,0,0.119-0.042-0.033,0.016c2.42-0.949,4.848,0.094,5.423,2.328C1904.711,1538.616,1903.215,1541.196,1900.795,1542.145z"/>
		<path style="fill:#F99370;" d="M1894.324,1536.938l-4.525-0.122c-2.486-0.067-4.119-2.052-3.647-4.435
			c0.471-2.383,2.868-4.26,5.354-4.193l4.525,0.122c2.486,0.067,4.119,2.052,3.647,4.435
			C1899.206,1535.128,1896.809,1537.005,1894.324,1536.938z"/>
		<path style="fill:#F99370;" d="M1890.135,1530.886l-4.525-0.122c-2.486-0.067-4.119-2.052-3.647-4.435
			c0.471-2.382,2.868-4.26,5.354-4.193l4.525,0.122c2.486,0.067,4.119,2.052,3.647,4.435
			C1895.018,1529.076,1892.62,1530.953,1890.135,1530.886z"/>
		<path style="fill:#F99370;" d="M1915.489,1529.234c-7.601-4.881-15.786-9.802-24.978-9.217c-2.648,0.19-6.42,2.361-7.636-1.255
			c-1.015-3.725,3.714-4.66,6.308-5.541c10.355-2.59,23.523-1.65,38.784,5.707
			C1939.616,1524.543,1924.289,1535.698,1915.489,1529.234z"/>
		<path style="fill:#EB5648;" d="M2159.931,1252.612c0,0-41.652-21.671-95.852,14.587c0,0-18.669-54.875,43.51-64.878
			C2144.404,1196.399,2159.931,1252.612,2159.931,1252.612z"/>
		<path style="fill:#CE3932;" d="M2135.325,1246.514c0,0-18.694-4.158-33.643-1.762c-14.948,2.396-39.793,11.937-46.629,22.395
			c-6.837,10.458,9.026,0.053,9.026,0.053S2096.198,1244.162,2135.325,1246.514z"/>
		<path style="fill:#CE3932;" d="M2086.339,1208.702c0,0-21.981,17.306-18.385,47.899c0,0,24.942-9.96,25.682-10.116
			c0.74-0.156-6.544-25.704,9.629-43.54C2103.265,1202.945,2093.189,1201.469,2086.339,1208.702z"/>
		<path style="fill:#103663;" d="M2075.457,1694.01c4.021-6.968,10.265-10.81,18.681-12.043c12.043-1.763,27.169-1.695,48.968-1.122
			l2.15-20.369C2145.255,1660.476,2086.191,1661.426,2075.457,1694.01z"/>
	</g>
	<g id="_x32_">
		<path style="fill:#CE3932;" d="M628.283,1132.347c0,0,81.4,18.883,110.719,132.312l-79.206,16.692L628.283,1132.347z"/>
		<path style="fill:#F99370;" d="M534.371,1884.107l-1.438-0.75c0,1.006-1.245,4.503-2.251,4.503l-42.529,0.875
			c-1.007,0-1.626-1.895-1.626-2.902l-3.628-1.038c0-6.369,0.524-8.677,3.337-13.606c3.636-6.359,5.131-14.07,4.459-21.674
			l-6.107-69.585c-0.094-1.065,0.746-1.982,1.816-1.982h43.633c1.063,0,1.901,0.907,1.817,1.967l-5.571,70.227
			c-0.588,7.368,0.823,14.844,4.308,21.017c0.008,0.029,0.025,0.049,0.042,0.078
			C533.436,1876.156,534.371,1877.757,534.371,1884.107z"/>
		<path style="fill:#F99370;" d="M724.459,1890.227h-84.713c-3.869,0-6.919-3.247-6.726-7.111c0.094-1.868,0.314-4.073,0.75-6.577
			c1.225-7.065,1.734-14.227,1.607-21.39c-0.059-3.429-0.265-6.859-0.617-10.278l-6.098-59.501c-0.407-3.97,2.709-7.422,6.7-7.422
			h37.387c4.052,0,7.187,3.552,6.682,7.573l-6.8,54.215c-1.488,11.861,6.153,22.924,17.753,25.812
			c8.266,2.058,16.66,3.291,22.664,4.837c0.774,0.206,1.548,0.412,2.293,0.627h0.01c6.366,1.817,11.629,4.2,14.671,8.671
			C733.07,1884.161,729.875,1890.227,724.459,1890.227z"/>
		<path style="fill:#103663;" d="M630.546,1881.438c0.164,1.362,0.422,2.707,0.792,4.016c0.797,2.822,3.374,4.773,6.307,4.773
			h87.871c4.478,0,7.688-4.413,6.203-8.638c-0.018-0.05-0.035-0.101-0.054-0.151c-3.411-9.593-15.527-23.889-57.049-26.234
			c-0.629-0.036-1.265,0.019-1.878,0.166c-3.125,0.752-14.697,3.028-32.233,0.598c-3.136-0.434-6.134,1.417-7.134,4.421
			C631.656,1865.542,629.604,1873.73,630.546,1881.438z"/>
		<path style="fill:#103663;" d="M489.637,1890.228h37.556c4.724,0,8.539-3.919,8.335-8.638c-0.002-0.05-0.004-0.101-0.007-0.151
			c-0.47-10.328-4.84-26.083-27.102-26.289c-22.34-0.196-26.661,15.834-27.112,26.289c-0.003,0.061-0.005,0.121-0.007,0.181
			C481.118,1886.328,484.925,1890.228,489.637,1890.228z"/>
		<path style="fill:#E8C0A6;" d="M704.568,1878.335c0.738,0,1.437-0.44,1.731-1.166c3.378-8.331,9.468-10.882,9.725-10.986
			c0.952-0.386,1.417-1.471,1.036-2.426c-0.381-0.954-1.458-1.421-2.414-1.046c-0.317,0.125-7.801,3.17-11.808,13.054
			c-0.387,0.955,0.073,2.045,1.029,2.432C704.097,1878.29,704.334,1878.335,704.568,1878.335z"/>
		<path style="fill:#E8C0A6;" d="M690.059,1876.584c0.797,0,1.535-0.514,1.783-1.316c2.969-9.593,11.393-14.109,11.477-14.154
			c0.912-0.478,1.266-1.606,0.789-2.518c-0.476-0.912-1.599-1.268-2.513-0.794c-0.402,0.208-9.876,5.237-13.32,16.362
			c-0.305,0.984,0.247,2.031,1.232,2.335C689.69,1876.557,689.876,1876.584,690.059,1876.584z"/>
		<path style="fill:#E8C0A6;" d="M673.547,1874.554c0.773,0,1.495-0.483,1.763-1.254c3.487-10.022,11.539-15.478,11.621-15.532
			c0.856-0.571,1.09-1.729,0.521-2.587c-0.569-0.858-1.723-1.095-2.584-0.525c-0.372,0.246-9.169,6.164-13.084,17.417
			c-0.339,0.974,0.176,2.038,1.15,2.377C673.136,1874.521,673.343,1874.554,673.547,1874.554z"/>
		<path style="fill:#E8C0A6;" d="M522.215,1866.316c0.71,0,1.389-0.407,1.702-1.096c0.426-0.939,0.01-2.046-0.929-2.472
			c-0.664-0.3-16.391-7.283-28.983,0.089c-0.89,0.521-1.189,1.664-0.668,2.554c0.52,0.889,1.663,1.191,2.554,0.668
			c10.945-6.407,25.409,0.023,25.554,0.089C521.695,1866.263,521.957,1866.316,522.215,1866.316z"/>
		<path style="fill:#0F2E54;" d="M731.664,1881.438H630.546c0.372,3.086,1.225,6.085,2.773,8.789h92.197
			c4.478,0,7.688-4.413,6.203-8.638C731.7,1881.539,731.682,1881.489,731.664,1881.438z"/>
		<path style="fill:#0F2E54;" d="M489.637,1890.228h37.556c4.724,0,8.539-3.919,8.335-8.638l-0.007-0.151h-54.214
			c-0.003,0.061-0.005,0.121-0.007,0.181C481.118,1886.328,484.925,1890.228,489.637,1890.228z"/>
		<path style="fill:#F99370;" d="M601.67,1120.582c2.083-18.166-0.759-44.364-3.292-55.155c-1.332-5.828-5.503-10.236-10.19-11.699
			c-11.991-4.164-26.187,6.052-22.497,19.567c1.087-0.684,4.568,37.852,2.165,48.551
			C536.208,1131.34,631.393,1162.56,601.67,1120.582z"/>
		<path style="fill:#E57D61;" d="M565.368,1071.541c0.039,0.245,0.069,0.5,0.118,0.745c0.059,0.343,0.127,0.676,0.206,1.009
			c0.784-0.519,2.979,20.743,2.998,36.175c14.502,6.594,30.669,3.694,33.628,3.086c0.647-16.314-1.891-36.538-3.214-44.102
			c-0.392-1.773-0.676-2.812-0.725-3.028c-0.118-0.48-0.255-0.95-0.412-1.411c-1.617-4.84-5.281-8.515-9.769-10.288
			c-0.01,0-0.01,0-0.01,0c-3.116-1.225-6.614-1.529-10.112-0.686c-3.459,0.843-6.408,2.695-8.603,5.174
			c-0.098,0.098-0.186,0.206-0.274,0.304C566.24,1062.037,564.731,1066.73,565.368,1071.541z"/>
		<path style="fill:#EB5648;" d="M689.723,1372.885c-9.142,33.991-205.588,29.998-208.521,5.961l5.882-69.921
			c3.793-46.479,26.414-136.023,54.563-180.176c0,0,10.278-4.661,26.351-8.167c0,0,43.625,37.443,33.714,0.086
			c14.6,2.541,23.402,8.545,23.402,8.545C666.873,1186.124,680.907,1306.494,689.723,1372.885z"/>
		<path style="fill:#CE3932;" d="M614.895,1129.542c-3.641,27.702-48.794,10.178-60.014-5.522c0,0,5.385-3.363,13.117-3.439
			c37.279,25.974,34.134,1.797,33.695,0.019c0,0,5.275-0.464,13.204,3.625C615.078,1125.314,614.895,1128.453,614.895,1129.542z"/>
		<path style="fill:#1D3F70;" d="M693.908,1397.632L693.908,1397.632c-2.065-37.946-21.906-214.903-52.916-259.151
			c-2.946-6.412-15.878-9.268-15.878-9.268c16.604,37.681,20.339,78.023,20.339,78.023s-15.182,8.355-30.475,10.416
			c-18.125,2.443-37.558-0.708-37.558-0.708c-6.122-69.822-35.771-88.195-35.771-88.195c-9.451,0.203-14.898,6.539-14.898,6.539
			c38.474,106.083-39.666,173.637-39.666,173.637c-3.239,28.781-8.487,92.983-8.487,92.983l0,0
			c-6.135,41.274-11.751,214.952-3.376,440.394c0,0,42.341,9.73,64.155-0.725c11.353-67.345,42.871-254.899,53.849-383.417
			c0.42,7.494,23.482,309.716,27.872,383.417c15.074,4.773,45.349,10.513,62.29-1.029
			C690.003,1764.88,723.58,1597.709,693.908,1397.632z"/>
		<path style="fill:#103663;" d="M621.096,1841.577c0,0,5.231,1.754,12.947,3.322l0.124-0.029c0,0-21.274-299.926-24.444-339.952
			c-3.169-40.026-16.5-46.757-16.5-46.757S621.449,1835.1,621.096,1841.577z"/>
		<path style="fill:#103663;" d="M620.258,1827.036c0.57,8.652,0.88,13.825,0.839,14.541c0,0,5.231,1.754,12.947,3.322
			c13.745,2.793,35.361,4.997,49.343-4.35c0,0,0.539-4.752,1.419-13.512C684.806,1827.036,655.121,1839.95,620.258,1827.036z"/>
		<path style="fill:#103663;" d="M475.221,1842.302c0,0,42.341,9.73,64.155-0.725c0,0,0.901-5.213,2.476-14.541
			c0,0-28.856,7.907-66.174,0C475.511,1836.129,475.356,1841.547,475.221,1842.302z"/>
		<path style="fill:#103663;" d="M484.682,1336.99c0,0,125.252,24.112,202.187-3.567c0,0,5.353,14.971,2.609,23.156
			c0,0-79.109,27.259-207.22,2.446C482.258,1359.025,480.053,1346.71,484.682,1336.99z"/>
		<path style="fill:#F99370;" d="M519.301,1143.443c-31.799,39.154-55.274,102.85-46.793,151.837
			c19.367,92.09,105.984,77.543,161.531,25.84c11.832-10.421-4.868-28.429-18.478-20.797c-9.938,5.473-16.844,9.799-27.258,12.792
			c-92.438,26.563-69.708-63.231-42.289-106.265L519.301,1143.443z"/>
		<path style="fill:#CE3932;" d="M625.295,1328.738c0,0-3.668,3.6-10.316,8.601c-19.47,14.617-64.538,41.186-118.196,24.312
			c-93.5-29.402-48.206-196.663,29.967-226.358c0,0,20.316,26.682,24.368,56.976c3.296,24.594-3.578,47.642-13.172,64.945
			c-29.583,53.375,30.351,51.626,58.658,48.161c8.172-0.993,13.702-2.133,13.702-2.133
			C610.385,1321.029,625.295,1328.738,625.295,1328.738z"/>
		<polygon style="fill:#3A72AA;" points="623.291,1370.776 731.377,1367.948 773.797,1185.316 665.711,1188.143 		"/>
		<path style="fill:#F99370;" d="M742.603,1303.898c4.674,1.16,14.321-3.592,7.363-8.184c-2.654-1.605-5.273-0.427-7.531,0.35
			l0.225,0.023C735.395,1295.389,736.186,1303.229,742.603,1303.898z"/>
		<path style="fill:#F99370;" d="M745.569,1296.902c3.235-0.207,6.889-1.22,8.573-4.227c2.304-4.856-7.777-8.187-9.808-3.892
			c0.029-0.095,0.123-0.094-0.092,0.002c-0.209,0.091-0.609,0.182-0.878,0.207c-0.008,0.003-0.136,0.009,0.04,0.001
			C736.007,1289.666,739.793,1297.408,745.569,1296.902z"/>
		<path style="fill:#F99370;" d="M748.95,1289.677l4.543-1.427c6.559-2.674-0.666-9.293-5.258-7.391c0,0-4.543,1.427-4.543,1.427
			C737.134,1284.959,744.358,1291.578,748.95,1289.677z"/>
		<path style="fill:#F99370;" d="M750.728,1282.925l4.543-1.427c6.558-2.673-0.666-9.293-5.258-7.391c0,0-4.543,1.427-4.543,1.427
			C738.912,1278.207,746.136,1284.827,750.728,1282.925z"/>
		<path style="fill:#F99370;" d="M615.368,1300.218c1.091-2.021,2.847-3.968,4.497-5.698c7.668-8.353,17.017-15.2,27.496-19.548
			c4.166-1.73,8.506-3.011,12.898-3.864c4.25-0.927,6.026,5.667,1.799,6.947c-4.552,1.478-8.887,3.457-12.925,5.972
			c5.391-2.021,11.054-3.746,16.676-5.008c4.103-1.096,6.253,5.184,2.263,6.798c-7.547,3.132-14.791,7.147-21.59,11.67
			c7.14-2.771,14.116-5.946,20.935-9.437c3.944-2.082,7.358,4.029,3.471,6.283c-7.284,4.462-14.802,8.54-22.536,12.181
			c4.055-1.305,8.177-2.847,12.136-4.416c3.979-1.655,6.919,4.432,3.058,6.489c-1.402,0.787-2.799,1.591-4.213,2.368
			c-8.755,4.719-17.817,9.011-27.321,12.022C630.638,1323.412,613.755,1303.207,615.368,1300.218z"/>
		<path style="fill:#8C4225;" d="M626.862,992.162c0,0,10.785-2.573,14.079,7.294c3.293,9.868-4.593,13.757,0.348,23.01
			c16.207,23.614-2.817,15.851-4.643,33.312C635.31,1055.349,603.202,995.59,626.862,992.162z"/>
		<path style="fill:#F99370;" d="M620.056,1103.02c-15.509,8.94-35.15,7.256-49.184-0.123c-5.874-2.961-10.98-7.089-14.696-12.444
			l-0.019-0.005c-14.601-23.496-10.421-61.502,7.615-81.37c26.332-29.373,67.855-11.518,67.132,27.619
			c0.402,6.094,2.398,13.24,5.741,19.075C645.428,1071.47,640.076,1090.76,620.056,1103.02z"/>
		<path style="fill:#F9F8F3;" d="M615.995,1080.678L599.07,1065.1C593.785,1076.322,604.585,1087.832,615.995,1080.678z"/>
		<path style="fill:#C16256;" d="M608.468,1049.801c2.106-2.232-1.448-5.488-3.487-3.195
			C602.876,1048.838,606.429,1052.094,608.468,1049.801z"/>
		<path style="fill:#C16256;" d="M628.516,1051.916c2.106-2.232-1.448-5.488-3.487-3.195
			C622.924,1050.952,626.477,1054.208,628.516,1051.916z"/>
		<path style="fill:#C16256;" d="M615.668,1081.511c0.87,0.376,1.671-0.854,0.934-1.491c-0.605,0.043-17.615-17.636-18.191-15.526
			c-0.335,0.365-0.311,0.931,0.052,1.265C598.821,1066.003,615.247,1081.367,615.668,1081.511z"/>
		<path style="fill:#E57D61;" d="M628.151,1020.911c-14.517,8.019-27.688-13.997-32.123,2.736
			c-1.687,7.04-13.823,1.451-16.236,4.302c-2.404,2.853-2.401,9.564-6.44,13.003c-4.039,3.439-19.818,4.66-19.818,4.66
			c-0.607,15.244-6.117,26.901,5.103,47.978c-0.881-0.992-1.703-2.042-2.46-3.136l-0.019-0.005
			c-14.599-23.495-10.422-61.502,7.615-81.37C581.576,986.606,622.021,990.725,628.151,1020.911z"/>
		<path style="fill:#C16256;" d="M614.771,1069.382c4.182,1.633,12.682,0.788,8.194-4.741c-3.655-3.532-4.331-13.331-4.338-13.429
			c-0.056-1.153-1.88-1.047-1.786,0.116c0.027,0.43,0.731,10.593,4.88,14.601c0.471,0.455,0.965,1.083,0.639,1.489
			c-0.924,1.153-5.433,1.458-8.051-0.269C612.006,1066.562,613.102,1069.282,614.771,1069.382z"/>
		<path style="fill:#8C4225;" d="M626.276,1015.493c0,0,9.85-6.995,3.941-15.801c-5.908-8.806-2.65-18.639-13.819-19.96
			c-11.169-1.321-15.516-1.138-26.27-7.516c-10.754-6.377-23.729,2.055-25.336,9.547c-1.607,7.492-17.222,3.142-22.324,12.461
			c-5.102,9.319-3.609,12.957-4.812,17.276c-1.203,4.319-16.398,6.173-16.609,17.212c-0.211,11.04,8.867,11.867,8.689,18.933
			c-0.178,7.066-8.417,16.977-1.83,22.819c9.766,8.662,21.519,4.104,21.519,4.104c-8.606-49.474,18.825-20.611,23.219-46.163
			c0.397-10.272,13.804-3.316,18.538-7.368C605.284,997.687,602.066,1021.595,626.276,1015.493z"/>
		<path style="fill:#F99370;" d="M536.776,1048.026c-1.342,17.968,21.35,19.408,22.288,1.413
			C560.406,1031.471,537.713,1030.031,536.776,1048.026z"/>
		<path style="fill:#C16256;" d="M541.132,1053.043c2.59,0.096,0.242-9.911,4.192-10.911c4.103-1.791,6.509,2.815,8.088,1.406
			c0.949-1.6-4.752-4.745-8.903-3C542.146,1041.47,539.173,1047.851,541.132,1053.043z"/>
		<path style="fill:#C16256;" d="M549.516,1054.079c3.493,1.615-1.719-13.045-7.534-10.836c-0.164,0.466,0.084,0.984,0.547,1.142
			C548.951,1046.927,548.189,1053.392,549.516,1054.079z"/>
		<path style="fill:#C16256;" d="M598.297,1041.642c0.389,0.153,0.843,0.012,1.071-0.355c4.214-6.771,12.696-6.182,12.781-6.175
			c0.485,0.039,0.911-0.323,0.95-0.809c0.039-0.486-0.32-0.909-0.807-0.951c-0.391-0.031-9.631-0.698-14.423,7.003
			c-0.257,0.414-0.131,0.958,0.283,1.215C598.199,1041.598,598.248,1041.623,598.297,1041.642z"/>
		<path style="fill:#C16256;" d="M629.463,1041.961c0.249,0.098,0.54,0.082,0.785-0.069c0.414-0.255,0.545-0.797,0.291-1.212
			c-0.162-0.265-4.065-6.501-11.154-6.191c-0.487,0.021-0.864,0.433-0.843,0.92c0.022,0.487,0.432,0.865,0.921,0.843
			c6.035-0.261,9.538,5.296,9.572,5.352C629.139,1041.772,629.292,1041.894,629.463,1041.961z"/>
	</g>
	<g id="_x31_">
		<path style="fill:#F99370;" d="M1310.812,1091.758c0,0,19.89-6.742,21.57-23.673l-24.898-23.917
			c-5.011,0.154-13.208,22.785-14.328,36.117C1293.157,1080.284,1298.845,1080.127,1310.812,1091.758z"/>
		<polygon style="fill:#F99370;" points="1290.29,1083.035 1296.337,1075.19 1311.789,1086.436 1310.167,1094.841 		"/>
		<path style="fill:#CE3932;" d="M1310.167,1094.841c0.395,4.409,0.412,8.846,0.08,13.295
			c-2.846,38.126-30.376,97.573-86.164,129.246c-41.185,23.382-126.811,29.358-174.864-37.475
			c-35.197-48.953,17.257-85.523,56.611-61.426c33.553,20.546,81.324,27.082,107.665,13.831
			c21.314-10.722,54.73-47.661,68.17-60.644c5.329-5.157,8.625-8.633,8.625-8.633
			C1304.193,1083.228,1310.167,1094.841,1310.167,1094.841z"/>
		<path style="fill:#1D3F70;" d="M1379.991,1091.059c-3.779-17.862-26.019-27.045-41.166-17.646l-44.209-44.606
			c9.489-15.253,0.179-37.57-17.815-41.265c-4.04-0.943-8.077,1.568-9.019,5.607c-2.015,8.224,7.276,8.369,11.665,12.334
			c12.079,11.85-5.822,30.299-18.028,18.577c-1.763-1.711-2.997-3.869-3.567-6.239c-2.131-9.51-17.03-5.921-14.602,3.516
			c3.779,17.561,25.279,26.899,40.615,17.957l44.448,44.847c-14.718,23.412,19.234,53.756,27.146,35.103
			c2.01-8.22-7.275-8.371-11.665-12.334c-5.121-4.97-5.245-13.18-0.275-18.302c6.737-7.318,19.776-3.719,21.868,5.963
			C1367.52,1104.085,1382.418,1100.493,1379.991,1091.059z"/>
		<path style="fill:#EB5648;" d="M1132.19,1364.6c-0.14,0.48-0.27,0.71-0.38,0.66C1131,1364.91,1130.61,1364.88,1132.19,1364.6z"/>
		<path style="fill:#3A72AA;" d="M1090,1640.408c-8.284,0-15-6.716-15-15v-263.489c0-8.284,6.716-15,15-15s15,6.716,15,15v263.489
			C1105,1633.692,1098.284,1640.408,1090,1640.408z"/>
		<path style="fill:#F99370;" d="M999.208,1884.107l-1.438-0.75c0,1.006-1.245,4.503-2.252,4.503l-42.529,0.875
			c-1.007,0-1.626-1.895-1.626-2.902l-3.627-1.038c0-6.369,0.524-8.677,3.337-13.606c3.636-6.359,5.131-14.07,4.459-21.674
			l-6.107-69.585c-0.094-1.065,0.746-1.982,1.815-1.982h43.633c1.063,0,1.901,0.907,1.817,1.967l-5.571,70.227
			c-0.588,7.368,0.823,14.844,4.308,21.017c0.008,0.029,0.025,0.049,0.042,0.078
			C998.273,1876.156,999.208,1877.757,999.208,1884.107z"/>
		<path style="fill:#F99370;" d="M1189.297,1890.227h-84.713c-3.869,0-6.919-3.247-6.726-7.111c0.094-1.868,0.314-4.073,0.75-6.577
			c1.225-7.065,1.734-14.227,1.607-21.39c-0.059-3.429-0.265-6.859-0.617-10.278l-6.098-59.501c-0.407-3.97,2.709-7.422,6.7-7.422
			h37.387c4.052,0,7.187,3.552,6.682,7.573l-6.8,54.215c-1.488,11.861,6.153,22.924,17.753,25.812
			c8.266,2.058,16.66,3.291,22.664,4.837c0.774,0.206,1.548,0.412,2.293,0.627h0.01c6.366,1.817,11.628,4.2,14.671,8.671
			C1197.907,1884.161,1194.713,1890.227,1189.297,1890.227z"/>
		<path style="fill:#103663;" d="M1095.383,1881.438c0.164,1.362,0.422,2.707,0.792,4.016c0.797,2.822,3.374,4.773,6.307,4.773
			h87.871c4.479,0,7.688-4.413,6.203-8.638c-0.018-0.05-0.036-0.101-0.054-0.151c-3.411-9.593-15.527-23.889-57.049-26.234
			c-0.629-0.036-1.265,0.019-1.878,0.166c-3.125,0.752-14.698,3.028-32.233,0.598c-3.136-0.434-6.134,1.417-7.134,4.421
			C1096.493,1865.542,1094.441,1873.73,1095.383,1881.438z"/>
		<path style="fill:#103663;" d="M954.474,1890.228h37.556c4.724,0,8.539-3.919,8.335-8.638c-0.002-0.05-0.004-0.101-0.007-0.151
			c-0.47-10.328-4.84-26.083-27.102-26.289c-22.34-0.196-26.661,15.834-27.112,26.289c-0.003,0.061-0.005,0.121-0.007,0.181
			C945.955,1886.328,949.762,1890.228,954.474,1890.228z"/>
		<path style="fill:#E8C0A6;" d="M1169.405,1878.335c0.738,0,1.437-0.44,1.731-1.166c3.378-8.331,9.468-10.882,9.725-10.986
			c0.952-0.386,1.417-1.471,1.036-2.426c-0.381-0.954-1.457-1.421-2.414-1.046c-0.317,0.125-7.801,3.17-11.808,13.054
			c-0.387,0.955,0.073,2.045,1.029,2.432C1168.934,1878.29,1169.172,1878.335,1169.405,1878.335z"/>
		<path style="fill:#E8C0A6;" d="M1154.897,1876.584c0.797,0,1.535-0.514,1.783-1.316c2.969-9.593,11.393-14.109,11.477-14.154
			c0.912-0.478,1.266-1.606,0.789-2.518c-0.476-0.912-1.599-1.268-2.513-0.794c-0.402,0.208-9.876,5.237-13.32,16.362
			c-0.305,0.984,0.246,2.031,1.232,2.335C1154.528,1876.557,1154.714,1876.584,1154.897,1876.584z"/>
		<path style="fill:#E8C0A6;" d="M1138.384,1874.554c0.773,0,1.495-0.483,1.764-1.254c3.487-10.022,11.539-15.478,11.62-15.532
			c0.856-0.571,1.09-1.729,0.521-2.587c-0.569-0.858-1.723-1.095-2.584-0.525c-0.372,0.246-9.169,6.164-13.084,17.417
			c-0.339,0.974,0.176,2.038,1.15,2.377C1137.974,1874.521,1138.181,1874.554,1138.384,1874.554z"/>
		<path style="fill:#E8C0A6;" d="M987.052,1866.316c0.71,0,1.389-0.407,1.702-1.096c0.426-0.939,0.01-2.046-0.929-2.472
			c-0.664-0.3-16.391-7.283-28.983,0.089c-0.89,0.521-1.189,1.664-0.668,2.554c0.52,0.889,1.663,1.191,2.554,0.668
			c10.945-6.407,25.41,0.023,25.554,0.089C986.532,1866.263,986.795,1866.316,987.052,1866.316z"/>
		<path style="fill:#0F2E54;" d="M1196.502,1881.438h-101.119c0.372,3.086,1.225,6.085,2.773,8.789h92.197
			c4.479,0,7.688-4.413,6.203-8.638C1196.538,1881.539,1196.52,1881.489,1196.502,1881.438z"/>
		<path style="fill:#0F2E54;" d="M954.474,1890.228h37.556c4.724,0,8.539-3.919,8.335-8.638l-0.007-0.151h-54.214
			c-0.003,0.061-0.005,0.121-0.007,0.181C945.955,1886.328,949.762,1890.228,954.474,1890.228z"/>
		<path style="fill:#F99370;" d="M1066.508,1120.582c2.083-18.166-0.759-44.364-3.292-55.155
			c-1.333-5.828-5.503-10.236-10.19-11.699c-11.991-4.164-26.187,6.052-22.497,19.567c1.087-0.684,4.568,37.852,2.165,48.551
			C1001.046,1131.34,1096.23,1162.56,1066.508,1120.582z"/>
		<path style="fill:#E57D61;" d="M1030.205,1071.541c0.039,0.245,0.069,0.5,0.118,0.745c0.059,0.343,0.127,0.676,0.206,1.009
			c0.784-0.519,2.979,20.743,2.998,36.175c14.502,6.594,30.669,3.694,33.628,3.086c0.647-16.314-1.891-36.538-3.214-44.102
			c-0.392-1.773-0.676-2.812-0.725-3.028c-0.118-0.48-0.255-0.95-0.412-1.411c-1.617-4.84-5.281-8.515-9.769-10.288
			c-0.01,0-0.01,0-0.01,0c-3.116-1.225-6.614-1.529-10.112-0.686c-3.459,0.843-6.408,2.695-8.603,5.174
			c-0.098,0.098-0.186,0.206-0.274,0.304C1031.078,1062.037,1029.568,1066.73,1030.205,1071.541z"/>
		<path style="fill:#163260;" d="M1096.491,1043.236c0,0,2.211-18.731-1.946-31.84l-10.907,3.837L1096.491,1043.236z"/>
		<path style="fill:#F99370;" d="M1090.928,1095.431c-13.725,11.009-33.054,12.305-47.79,7.251
			c-4.606-1.504-8.901-3.689-12.605-6.656h-0.006c-1.252-1.002-2.423-2.073-3.525-3.231h-0.019
			c-17.703-20.638-19.339-58.172-4.791-80.175c10.236-17.055,34.502-25.313,51.629-14.076c11.95,8.092,15.431,22.572,19.292,36.18
			c1.271,3.754,4.025,8.794,6.851,12.335C1110.847,1060.991,1108.536,1080.528,1090.928,1095.431z"/>
		<path style="fill:#C16256;" d="M1071.704,1045.474c0.713-1.067,0.425-2.51-0.642-3.223c-1.067-0.713-2.51-0.425-3.223,0.642
			c-0.713,1.067-0.425,2.51,0.642,3.223C1069.548,1046.829,1070.992,1046.542,1071.704,1045.474z"/>
		<path style="fill:#C16256;" d="M1091.493,1044.526c0.713-1.067,0.425-2.51-0.642-3.223c-1.067-0.713-2.51-0.425-3.223,0.642
			c-0.713,1.067-0.425,2.51,0.642,3.223C1089.338,1045.881,1090.781,1045.593,1091.493,1044.526z"/>
		<path style="fill:#C16256;" d="M1083.111,1063.799c2.686,0,5.382-0.906,6.251-2.417c0.333-0.579,0.868-2.095-1.354-3.665
			c-4.075-2.879-6.204-12.299-6.225-12.394c-0.105-0.474-0.573-0.773-1.049-0.668c-0.474,0.105-0.773,0.574-0.668,1.049
			c0.091,0.414,2.297,10.18,6.927,13.451c0.526,0.371,1.099,0.907,0.844,1.351c-0.723,1.257-5.045,2.232-7.86,0.944
			c-0.44-0.202-0.964-0.008-1.165,0.434c-0.202,0.442-0.008,0.964,0.434,1.166
			C1080.368,1063.562,1081.738,1063.799,1083.111,1063.799z"/>
		<path style="fill:#E57D61;" d="M1089.232,1021.629c-15.887-1.143-28.7-6.817-28.7-6.817c-5.089,4.656-11.386,5.701-15.958,3.447
			c0,0-1.185,18.267-22.024,29.576l-3.726,17.295c0,0,1.847,19.455,11.709,30.895h-0.006c-1.252-1.002-2.423-2.073-3.525-3.231
			h-0.019c-3.776-3.945-6.688-8.76-8.923-14.421c-0.651-1.684-1.252-3.45-1.797-5.279c-0.808-2.736-1.484-5.623-2.054-8.679
			c-0.169-0.852-0.326-1.722-0.47-2.605c-0.138-0.776-0.257-1.572-0.382-2.367c-0.144-1.19-0.301-2.404-0.457-3.657
			c0-0.15-0.025-0.294-0.044-0.457c-0.125-1.196-0.238-2.392-0.307-3.563c-0.088-1.284-0.125-2.555-0.144-3.832
			c-0.138-13.4,3.5-25.767,9.787-35.316c2.836-4.308,6.212-8.034,10.025-11.027c0.219-0.156,0.419-0.313,0.632-0.476
			c5.31-4.014,11.453-6.575,18.134-7.326c2.887-0.313,5.604-0.382,8.178-0.175c3.782,0.282,7.232,1.14,10.363,2.53
			c0.138,0.056,0.269,0.119,0.394,0.175c1.359,0.633,2.661,1.371,3.901,2.223c1.86,1.252,3.576,2.73,5.178,4.446
			c1.772,1.885,3.388,4.051,4.859,6.493C1086.257,1013.465,1089.232,1021.629,1089.232,1021.629z"/>
		<path style="fill:#163260;" d="M1024.72,1000.691c1.364-14.259,16.655-12.329,32.414-24.148
			c20.464-15.348,25.056,12.553,36.461,23.782c14.782,14.553,6.962,18.794-5.659,17.527c-13.745-1.38-28.472-6.456-28.472-6.456
			s-4.832,6.739-17.826,3.417c0,0.001-4.185,17.173-22.009,28.423h-14.438C1005.191,1043.235,994.791,1010.24,1024.72,1000.691z"/>
		<path style="fill:#F99370;" d="M1001.805,1054.486c0.674,7.503,6.114,13.145,12.15,12.603c6.036-0.542,10.383-7.064,9.709-14.567
			c-0.674-7.503-6.114-13.145-12.15-12.603C1005.477,1040.462,1001.131,1046.983,1001.805,1054.486z"/>
		<path style="fill:#C16256;" d="M1006.981,1058.729c0.051,0,0.104-0.005,0.156-0.014c0.478-0.086,0.796-0.543,0.71-1.021
			c-0.956-5.328-0.48-8.859,1.379-10.212c2.466-1.797,6.832,0.493,6.875,0.516c0.43,0.228,0.961,0.067,1.19-0.361
			c0.229-0.428,0.069-0.96-0.359-1.19c-0.217-0.117-5.375-2.833-8.736-0.39c-2.479,1.801-3.179,5.821-2.079,11.949
			C1006.192,1058.43,1006.563,1058.729,1006.981,1058.729z"/>
		<path style="fill:#C16256;" d="M1015.277,1058.48c0.082,0,0.164-0.011,0.247-0.035c0.466-0.136,0.735-0.624,0.599-1.09
			c-0.092-0.316-2.331-7.758-8.953-8.996c-0.477-0.091-0.937,0.226-1.026,0.703c-0.089,0.477,0.226,0.937,0.703,1.026
			c5.57,1.041,7.566,7.691,7.586,7.759C1014.545,1058.23,1014.896,1058.48,1015.277,1058.48z"/>
		<path style="fill:#EB5648;" d="M1154.555,1372.881c-9.142,33.996-205.579,30-208.514,5.971l5.881-69.922
			c0.451-5.542,1.174-11.682,2.144-18.296c0.768-5.305,1.693-10.914,2.776-16.739c8.838-47.822,27.54-110.476,49.64-145.149
			c0,0,10.283-4.662,26.355-8.16c0,0,43.624,37.438,33.714,0.079c14.594,2.54,23.398,8.544,23.398,8.544
			C1131.71,1186.128,1145.74,1306.491,1154.555,1372.881z"/>
		<path style="fill:#CE3932;" d="M1079.733,1129.542c-3.641,27.702-48.794,10.178-60.014-5.522c0,0,5.385-3.363,13.117-3.439
			c37.279,25.974,34.134,1.797,33.695,0.019c0,0,5.275-0.464,13.204,3.625C1079.916,1125.314,1079.733,1128.453,1079.733,1129.542z"
			/>
		<path style="fill:#1D3F70;" d="M1158.746,1397.632L1158.746,1397.632c-2.615-43.988-21.973-215.639-52.916-259.151
			c-4.089-5.75-15.878-9.269-15.878-9.269c16.604,37.681,20.339,78.023,20.339,78.023s-15.182,8.355-30.475,10.416
			c-18.125,2.443-37.558-0.708-37.558-0.708c-6.122-69.822-35.772-88.195-35.772-88.195c-9.451,0.203-14.898,6.539-14.898,6.539
			c38.474,106.083-39.666,173.637-39.666,173.637c-3.239,28.781-8.487,92.983-8.487,92.983l0,0
			c-6.135,41.274-11.751,214.952-3.376,440.394c0,0,42.341,9.73,64.154-0.725c11.353-67.345,42.871-254.899,53.849-383.417
			c0.42,7.494,23.482,309.716,27.872,383.417c15.074,4.773,45.349,10.513,62.29-1.029
			C1154.841,1764.88,1188.417,1597.709,1158.746,1397.632z"/>
		<path style="fill:#103663;" d="M1085.934,1841.577c0,0,5.231,1.754,12.947,3.322l0.124-0.029c0,0-21.274-299.926-24.444-339.952
			c-3.169-40.026-16.5-46.757-16.5-46.757S1086.286,1835.1,1085.934,1841.577z"/>
		<path style="fill:#103663;" d="M1085.095,1827.036c0.57,8.652,0.88,13.825,0.839,14.541c0,0,5.231,1.754,12.947,3.322
			c13.745,2.793,35.361,4.997,49.343-4.35c0,0,0.539-4.752,1.419-13.512C1149.643,1827.036,1119.959,1839.95,1085.095,1827.036z"/>
		<path style="fill:#103663;" d="M940.059,1842.302c0,0,42.341,9.73,64.154-0.725c0,0,0.901-5.213,2.476-14.541
			c0,0-28.856,7.907-66.174,0C940.349,1836.129,940.193,1841.547,940.059,1842.302z"/>
		<path style="fill:#103663;" d="M949.519,1336.99c0,0,125.252,24.112,202.187-3.567c0,0,5.353,14.971,2.609,23.156
			c0,0-79.109,27.259-207.22,2.446C947.095,1359.025,944.89,1346.71,949.519,1336.99z"/>
		<path style="fill:#C16256;" d="M1062.279,1040.267c0.18,0,0.363-0.046,0.53-0.142c0.06-0.034,6.04-3.431,11.109-2.763
			c0.583,0.077,1.116-0.333,1.193-0.916c0.076-0.582-0.334-1.116-0.916-1.193c-5.799-0.762-12.181,2.875-12.449,3.03
			c-0.508,0.293-0.683,0.943-0.389,1.452C1061.554,1040.076,1061.912,1040.267,1062.279,1040.267z"/>
		<path style="fill:#C16256;" d="M1092.056,1038.005c0.39,0,0.766-0.216,0.952-0.588c0.262-0.526,0.05-1.164-0.476-1.427
			c-4.323-2.161-8.486-0.846-8.661-0.789c-0.558,0.182-0.864,0.782-0.681,1.341c0.181,0.557,0.778,0.865,1.338,0.682
			c0.061-0.019,3.546-1.085,7.053,0.668C1091.734,1037.968,1091.896,1038.005,1092.056,1038.005z"/>
		<path style="fill:#C16256;" d="M1082.547,1072.511c2.811,0,6.148-0.498,9.22-2.242c0.511-0.29,0.69-0.939,0.4-1.45
			c-0.29-0.511-0.941-0.689-1.45-0.4c-6.205,3.522-14.02,1.199-14.098,1.176c-0.562-0.171-1.156,0.145-1.328,0.705
			c-0.172,0.561,0.142,1.156,0.703,1.328C1076.194,1071.689,1078.937,1072.511,1082.547,1072.511z"/>
		<path style="fill:#EB5648;" d="M1004.045,1038.005c0,0,27.74-39.567,92.38-30.971c0,0-8.469-60.43-67.688-38.995
			C991.213,981.621,1004.045,1038.005,1004.045,1038.005z"/>
		<path style="fill:#CE3932;" d="M1023.368,1019.936c0,0,14.937-11.986,29.406-16.437c14.47-4.451,40.974-6.863,51.726-0.499
			c10.752,6.364-8.075,4.033-8.075,4.033S1057.435,1000.548,1023.368,1019.936z"/>
		<path style="fill:#CE3932;" d="M1050.621,964.378c0,0,27.364,5.82,37.648,34.857c0,0-26.777,2.078-27.509,2.265
			c-0.732,0.187-5.479-25.952-27.867-34.813C1032.893,966.688,1041.281,960.914,1050.621,964.378z"/>
		<path style="fill:#F99370;" d="M1307.658,1071.8c0,0-3.169-9.779-0.701-17.608c0.644-2.043,3.016-8.214,0.527-10.025
			c-2.622-1.682-5.285,1.59-6.445,3.471c-6.933,11.246-6.384,23.525-6.384,23.525
			C1296.16,1081.487,1310.505,1080.135,1307.658,1071.8z"/>
		<path style="fill:#F99370;" d="M1330.823,1070.194c0.332-0.352,0.395-0.441,0.554-0.633c0.135-0.167,0.256-0.329,0.372-0.491
			c0.232-0.323,0.439-0.651,0.634-0.986c0.384-0.672,0.701-1.394,0.928-2.155c0.229-0.757,0.362-1.557,0.367-2.336
			c0.022-0.787-0.104-1.529-0.289-2.226c-0.547-2.064-2.841-3.033-5.124-2.164c-1.609,0.613-2.783,1.976-3.145,3.449l-0.544,2.243
			c-0.011,0.044,0.006-0.054,0-0.036c0,0-0.009,0.038-0.036,0.086l-0.044,0.067c-0.007,0.009-0.009,0.013-0.009,0.013l0.14-0.151
			c-1.843,1.897-1.949,4.626-0.238,6.095S1328.98,1072.091,1330.823,1070.194z"/>
		<path style="fill:#F99370;" d="M1327.574,1064.244c0.198-0.344,0.247-0.45,0.349-0.651l0.242-0.516
			c0.152-0.34,0.284-0.678,0.406-1.025c0.24-0.692,0.428-1.419,0.541-2.191c0.116-0.768,0.129-1.603,0.022-2.438
			c-0.103-0.842-0.389-1.683-0.787-2.445c-1.082-1.975-3.781-2.443-6.029-1.044c-2.247,1.399-3.191,4.135-2.109,6.11
			c-0.065-0.082-0.017-0.154-0.044,0.072c-0.017,0.105-0.05,0.257-0.11,0.43c-0.03,0.085-0.065,0.177-0.103,0.26l-0.053,0.116
			c-0.002,0.008-0.061,0.11,0.021-0.03c-1.324,2.237-0.684,4.8,1.43,5.726C1323.463,1067.543,1326.25,1066.48,1327.574,1064.244z"/>
		<path style="fill:#F99370;" d="M1323.471,1057.022l0.605-4.486c0.332-2.464-1.366-4.394-3.793-4.311
			c-2.427,0.083-4.664,2.149-4.996,4.613l-0.605,4.486c-0.332,2.464,1.366,4.394,3.794,4.311
			C1320.902,1061.552,1323.139,1059.486,1323.471,1057.022z"/>
		<path style="fill:#F99370;" d="M1318.168,1051.918l0.605-4.486c0.332-2.464-1.366-4.394-3.794-4.311
			c-2.427,0.083-4.664,2.149-4.996,4.613l-0.605,4.486c-0.332,2.464,1.366,4.394,3.793,4.311
			C1315.599,1056.447,1317.836,1054.382,1318.168,1051.918z"/>
		<path style="fill:#F99370;" d="M1024.988,1430.125c-3.336,4.85-12.88-3.569-18.23-3.117c3.486,8.321,9.405,15.698,9.392,15.757
			c8.457,7.303,17.293,14.136,26.442,20.571c6.474,15.372-27.105-9.731-31.274-11.674c-0.039,0.04-0.081,0.078-0.121,0.117
			c7.067,9.329,14.658,18.287,22.953,26.547c3.032,17.164-27.275-18.184-30.911-21.427c-0.026,0.011-0.051,0.021-0.077,0.032
			c5.162,9.899,11.538,19.173,18.815,27.649c1.517,17.553-26.504-20.704-28.991-24.938c-0.044,0.007-0.087,0.013-0.131,0.02
			c0.755,7.434,13.97,23.089,10.509,27.875c-7.651,4.403-33.039-46.448-35.881-64.08c-1.54-6.36,14.605-14.97,20.792-13.235
			c5.8,1.628,12.829,5.883,15.411,7.348C1009.719,1419.943,1024.73,1422.851,1024.988,1430.125z"/>
		<path style="fill:#F99370;" d="M964.554,1294.574c-7.117,41.016,7.696,85.645,28.676,120.785c3.94,5.45,2.58,13.156-3.059,16.855
			c-18.153,12.382-55.686-48.602-63.166-62.871C860.492,1236.979,973.524,1237.851,964.554,1294.574z"/>
		<path style="fill:#CE3932;" d="M991.587,1135.288c0,0-60.204,20.606-82.161,82.393c-21.957,61.787-8.947,159.83,55.695,204.661
			c0,0,7.576-14.533,22.581-16.235c0,0-26.076-59.492-16.744-108.255C977.985,1261.13,1026.159,1229.426,991.587,1135.288z"/>
	</g>
</g>
</svg>
